<mxfile host="65bd71144e">
    <diagram id="xwjOYLa0pIOH28OWMVa9" name="update-retrieve key-value">
        <mxGraphModel dx="1616" dy="929" grid="1" gridSize="10" guides="1" tooltips="1" connect="1" arrows="1" fold="1" page="1" pageScale="1" pageWidth="5000" pageHeight="5000" math="0" shadow="0">
            <root>
                <mxCell id="0"/>
                <mxCell id="1" parent="0"/>
                <mxCell id="3" style="edgeStyle=none;html=1;" edge="1" parent="1" source="2" target="4">
                    <mxGeometry relative="1" as="geometry">
                        <mxPoint x="3210" y="2880" as="targetPoint"/>
                    </mxGeometry>
                </mxCell>
                <mxCell id="2" value="#appKey Name&lt;div style=&quot;text-align: justify&quot;&gt;&lt;/div&gt;" style="rounded=1;whiteSpace=wrap;html=1;arcSize=25;direction=west;" vertex="1" parent="1">
                    <mxGeometry x="2980" y="2850" width="120" height="60" as="geometry"/>
                </mxCell>
                <mxCell id="4" value="Jerry" style="rounded=1;whiteSpace=wrap;html=1;" vertex="1" parent="1">
                    <mxGeometry x="3150" y="2850" width="120" height="60" as="geometry"/>
                </mxCell>
                <mxCell id="7" value="" style="edgeStyle=none;html=1;" edge="1" parent="1" source="5" target="6">
                    <mxGeometry relative="1" as="geometry"/>
                </mxCell>
                <mxCell id="5" value="#A appKey Jerry" style="rounded=1;whiteSpace=wrap;html=1;" vertex="1" parent="1">
                    <mxGeometry x="2980" y="2950" width="120" height="60" as="geometry"/>
                </mxCell>
                <mxCell id="6" value="score" style="rounded=1;whiteSpace=wrap;html=1;" vertex="1" parent="1">
                    <mxGeometry x="3150" y="2950" width="120" height="60" as="geometry"/>
                </mxCell>
                <mxCell id="188" value="" style="edgeStyle=none;html=1;" edge="1" parent="1" source="8" target="187">
                    <mxGeometry relative="1" as="geometry"/>
                </mxCell>
                <mxCell id="8" value="local array" style="ellipse;whiteSpace=wrap;html=1;" vertex="1" parent="1">
                    <mxGeometry x="2500" y="2210" width="120" height="80" as="geometry"/>
                </mxCell>
                <mxCell id="9" value="" style="endArrow=classic;html=1;entryX=0.907;entryY=-0.072;entryDx=0;entryDy=0;entryPerimeter=0;" edge="1" parent="1" target="5">
                    <mxGeometry relative="1" as="geometry">
                        <mxPoint x="3170" y="2920" as="sourcePoint"/>
                        <mxPoint x="3370" y="2860" as="targetPoint"/>
                    </mxGeometry>
                </mxCell>
                <mxCell id="10" value="Label" style="edgeLabel;resizable=0;html=1;align=center;verticalAlign=middle;" connectable="0" vertex="1" parent="9">
                    <mxGeometry relative="1" as="geometry"/>
                </mxCell>
                <mxCell id="11" value="Source" style="edgeLabel;resizable=0;html=1;align=left;verticalAlign=bottom;" connectable="0" vertex="1" parent="9">
                    <mxGeometry x="-1" relative="1" as="geometry">
                        <mxPoint x="-10" y="10" as="offset"/>
                    </mxGeometry>
                </mxCell>
                <mxCell id="19" value="present" style="shape=document;whiteSpace=wrap;html=1;boundedLbl=1;" vertex="1" parent="1">
                    <mxGeometry x="2890" y="2210" width="120" height="80" as="geometry"/>
                </mxCell>
                <mxCell id="169" value="onload&lt;br&gt;retrive from API" style="ellipse;whiteSpace=wrap;html=1;aspect=fixed;" vertex="1" parent="1">
                    <mxGeometry x="1880" y="2200" width="80" height="80" as="geometry"/>
                </mxCell>
                <mxCell id="170" value="" style="shape=flexArrow;endArrow=classic;html=1;" edge="1" parent="1">
                    <mxGeometry width="50" height="50" relative="1" as="geometry">
                        <mxPoint x="1980" y="2245" as="sourcePoint"/>
                        <mxPoint x="2070" y="2245" as="targetPoint"/>
                        <Array as="points"/>
                    </mxGeometry>
                </mxCell>
                <mxCell id="171" style="edgeStyle=none;html=1;" edge="1" parent="1" source="172" target="173">
                    <mxGeometry relative="1" as="geometry">
                        <mxPoint x="2330" y="2200" as="targetPoint"/>
                    </mxGeometry>
                </mxCell>
                <mxCell id="172" value="#1 appKey Name&lt;div style=&quot;text-align: justify&quot;&gt;&lt;/div&gt;" style="rounded=1;whiteSpace=wrap;html=1;arcSize=25;direction=west;" vertex="1" parent="1">
                    <mxGeometry x="2100" y="2170" width="120" height="60" as="geometry"/>
                </mxCell>
                <mxCell id="173" value="Tom" style="rounded=1;whiteSpace=wrap;html=1;" vertex="1" parent="1">
                    <mxGeometry x="2270" y="2170" width="120" height="60" as="geometry"/>
                </mxCell>
                <mxCell id="174" value="" style="edgeStyle=none;html=1;" edge="1" parent="1" source="175" target="176">
                    <mxGeometry relative="1" as="geometry"/>
                </mxCell>
                <mxCell id="175" value="#1A appKey Tom" style="rounded=1;whiteSpace=wrap;html=1;" vertex="1" parent="1">
                    <mxGeometry x="2100" y="2270" width="120" height="60" as="geometry"/>
                </mxCell>
                <mxCell id="176" value="score" style="rounded=1;whiteSpace=wrap;html=1;" vertex="1" parent="1">
                    <mxGeometry x="2270" y="2270" width="120" height="60" as="geometry"/>
                </mxCell>
                <mxCell id="177" value="" style="endArrow=classic;html=1;entryX=0.907;entryY=-0.072;entryDx=0;entryDy=0;entryPerimeter=0;" edge="1" parent="1" target="175">
                    <mxGeometry relative="1" as="geometry">
                        <mxPoint x="2290" y="2240" as="sourcePoint"/>
                        <mxPoint x="2490" y="2180" as="targetPoint"/>
                    </mxGeometry>
                </mxCell>
                <mxCell id="178" value="Label" style="edgeLabel;resizable=0;html=1;align=center;verticalAlign=middle;" connectable="0" vertex="1" parent="177">
                    <mxGeometry relative="1" as="geometry"/>
                </mxCell>
                <mxCell id="179" value="Source" style="edgeLabel;resizable=0;html=1;align=left;verticalAlign=bottom;" connectable="0" vertex="1" parent="177">
                    <mxGeometry x="-1" relative="1" as="geometry">
                        <mxPoint x="-10" y="10" as="offset"/>
                    </mxGeometry>
                </mxCell>
                <mxCell id="180" value="" style="endArrow=classic;html=1;entryX=0;entryY=0.5;entryDx=0;entryDy=0;" edge="1" parent="1" target="8">
                    <mxGeometry relative="1" as="geometry">
                        <mxPoint x="2390" y="2199.41" as="sourcePoint"/>
                        <mxPoint x="2550" y="2199.41" as="targetPoint"/>
                    </mxGeometry>
                </mxCell>
                <mxCell id="181" value="Label" style="edgeLabel;resizable=0;html=1;align=center;verticalAlign=middle;" connectable="0" vertex="1" parent="180">
                    <mxGeometry relative="1" as="geometry">
                        <mxPoint x="40" y="-20" as="offset"/>
                    </mxGeometry>
                </mxCell>
                <mxCell id="182" value="Source" style="edgeLabel;resizable=0;html=1;align=left;verticalAlign=bottom;" connectable="0" vertex="1" parent="180">
                    <mxGeometry x="-1" relative="1" as="geometry"/>
                </mxCell>
                <mxCell id="183" value="" style="endArrow=classic;html=1;" edge="1" parent="1" target="8">
                    <mxGeometry relative="1" as="geometry">
                        <mxPoint x="2380" y="2300" as="sourcePoint"/>
                        <mxPoint x="2540" y="2300" as="targetPoint"/>
                    </mxGeometry>
                </mxCell>
                <mxCell id="184" value="Label" style="edgeLabel;resizable=0;html=1;align=center;verticalAlign=middle;" connectable="0" vertex="1" parent="183">
                    <mxGeometry relative="1" as="geometry"/>
                </mxCell>
                <mxCell id="185" value="Source" style="edgeLabel;resizable=0;html=1;align=left;verticalAlign=bottom;" connectable="0" vertex="1" parent="183">
                    <mxGeometry x="-1" relative="1" as="geometry"/>
                </mxCell>
                <mxCell id="189" value="" style="edgeStyle=none;html=1;" edge="1" parent="1" source="187" target="19">
                    <mxGeometry relative="1" as="geometry"/>
                </mxCell>
                <mxCell id="187" value="sort array in rank order" style="ellipse;whiteSpace=wrap;html=1;" vertex="1" parent="1">
                    <mxGeometry x="2700" y="2210" width="120" height="80" as="geometry"/>
                </mxCell>
                <mxCell id="190" value="game over" style="ellipse;whiteSpace=wrap;html=1;aspect=fixed;" vertex="1" parent="1">
                    <mxGeometry x="1820" y="2890" width="80" height="80" as="geometry"/>
                </mxCell>
                <mxCell id="191" value="" style="shape=flexArrow;endArrow=classic;html=1;" edge="1" parent="1">
                    <mxGeometry width="50" height="50" relative="1" as="geometry">
                        <mxPoint x="1910" y="2930" as="sourcePoint"/>
                        <mxPoint x="1990" y="2930" as="targetPoint"/>
                    </mxGeometry>
                </mxCell>
                <mxCell id="192" value="if the score &amp;lt;= local array(min)" style="rounded=0;whiteSpace=wrap;html=1;" vertex="1" parent="1">
                    <mxGeometry x="2000" y="2740" width="120" height="60" as="geometry"/>
                </mxCell>
                <mxCell id="195" value="" style="endArrow=classic;html=1;entryX=0;entryY=1;entryDx=0;entryDy=0;" edge="1" parent="1" target="192">
                    <mxGeometry relative="1" as="geometry">
                        <mxPoint x="1970" y="2899.5" as="sourcePoint"/>
                        <mxPoint x="2130" y="2899.5" as="targetPoint"/>
                    </mxGeometry>
                </mxCell>
                <mxCell id="196" value="Label" style="edgeLabel;resizable=0;html=1;align=center;verticalAlign=middle;" connectable="0" vertex="1" parent="195">
                    <mxGeometry relative="1" as="geometry">
                        <mxPoint y="15" as="offset"/>
                    </mxGeometry>
                </mxCell>
                <mxCell id="197" value="Source" style="edgeLabel;resizable=0;html=1;align=left;verticalAlign=bottom;" connectable="0" vertex="1" parent="195">
                    <mxGeometry x="-1" relative="1" as="geometry">
                        <mxPoint x="-40" as="offset"/>
                    </mxGeometry>
                </mxCell>
                <mxCell id="202" value="" style="edgeStyle=none;html=1;" edge="1" parent="1" source="198" target="201">
                    <mxGeometry relative="1" as="geometry"/>
                </mxCell>
                <mxCell id="198" value="if score &amp;gt; local&amp;nbsp; array(min)" style="rounded=0;whiteSpace=wrap;html=1;" vertex="1" parent="1">
                    <mxGeometry x="2070" y="2900" width="120" height="60" as="geometry"/>
                </mxCell>
                <mxCell id="199" value="" style="endArrow=classic;html=1;" edge="1" parent="1">
                    <mxGeometry relative="1" as="geometry">
                        <mxPoint x="1990" y="2930" as="sourcePoint"/>
                        <mxPoint x="2090" y="2930" as="targetPoint"/>
                    </mxGeometry>
                </mxCell>
                <mxCell id="200" value="Label" style="edgeLabel;resizable=0;html=1;align=center;verticalAlign=middle;" connectable="0" vertex="1" parent="199">
                    <mxGeometry relative="1" as="geometry"/>
                </mxCell>
                <mxCell id="205" value="" style="edgeStyle=none;html=1;" edge="1" parent="1" source="201" target="204">
                    <mxGeometry relative="1" as="geometry"/>
                </mxCell>
                <mxCell id="201" value="find array(min)[name]&lt;br&gt;array(min)[score]" style="ellipse;whiteSpace=wrap;html=1;" vertex="1" parent="1">
                    <mxGeometry x="2260" y="2880" width="140" height="110" as="geometry"/>
                </mxCell>
                <mxCell id="207" value="" style="edgeStyle=none;html=1;" edge="1" parent="1" source="204" target="206">
                    <mxGeometry relative="1" as="geometry"/>
                </mxCell>
                <mxCell id="204" value="find name appKey&lt;br&gt;score appKey" style="ellipse;whiteSpace=wrap;html=1;" vertex="1" parent="1">
                    <mxGeometry x="2490" y="2905" width="120" height="60" as="geometry"/>
                </mxCell>
                <mxCell id="206" value="update" style="shape=trapezoid;perimeter=trapezoidPerimeter;whiteSpace=wrap;html=1;fixedSize=1;" vertex="1" parent="1">
                    <mxGeometry x="2690" y="2905" width="120" height="60" as="geometry"/>
                </mxCell>
                <mxCell id="209" value="store new name: tom&lt;br&gt;store new score: Jerry" style="ellipse;whiteSpace=wrap;html=1;" vertex="1" parent="1">
                    <mxGeometry x="2660" y="2690" width="145" height="100" as="geometry"/>
                </mxCell>
                <mxCell id="210" value="" style="endArrow=classic;html=1;exitX=0.925;exitY=-0.05;exitDx=0;exitDy=0;exitPerimeter=0;entryX=0;entryY=0.5;entryDx=0;entryDy=0;" edge="1" parent="1" source="198" target="209">
                    <mxGeometry relative="1" as="geometry">
                        <mxPoint x="2410" y="2799" as="sourcePoint"/>
                        <mxPoint x="2570" y="2799" as="targetPoint"/>
                    </mxGeometry>
                </mxCell>
                <mxCell id="211" value="Label" style="edgeLabel;resizable=0;html=1;align=center;verticalAlign=middle;" connectable="0" vertex="1" parent="210">
                    <mxGeometry relative="1" as="geometry"/>
                </mxCell>
                <mxCell id="212" value="Source" style="edgeLabel;resizable=0;html=1;align=left;verticalAlign=bottom;" connectable="0" vertex="1" parent="210">
                    <mxGeometry x="-1" relative="1" as="geometry"/>
                </mxCell>
                <mxCell id="213" value="" style="endArrow=classic;html=1;" edge="1" parent="1">
                    <mxGeometry relative="1" as="geometry">
                        <mxPoint x="2810" y="2740" as="sourcePoint"/>
                        <mxPoint x="2960" y="2890" as="targetPoint"/>
                        <Array as="points">
                            <mxPoint x="2850" y="2800"/>
                        </Array>
                    </mxGeometry>
                </mxCell>
                <mxCell id="214" value="Label" style="edgeLabel;resizable=0;html=1;align=center;verticalAlign=middle;" connectable="0" vertex="1" parent="213">
                    <mxGeometry relative="1" as="geometry"/>
                </mxCell>
                <mxCell id="215" value="" style="shape=flexArrow;endArrow=classic;html=1;" edge="1" parent="1">
                    <mxGeometry width="50" height="50" relative="1" as="geometry">
                        <mxPoint x="2830" y="2950" as="sourcePoint"/>
                        <mxPoint x="2950" y="2950" as="targetPoint"/>
                    </mxGeometry>
                </mxCell>
            </root>
        </mxGraphModel>
    </diagram>
</mxfile>